<?xml version="1.0" encoding="UTF-8" standalone="no"?>
<!-- Created with Inkscape (http://www.inkscape.org/) -->

<svg
   xmlns:dc="http://purl.org/dc/elements/1.1/"
   xmlns:cc="http://creativecommons.org/ns#"
   xmlns:rdf="http://www.w3.org/1999/02/22-rdf-syntax-ns#"
   xmlns:svg="http://www.w3.org/2000/svg"
   xmlns="http://www.w3.org/2000/svg"
   xmlns:sodipodi="http://sodipodi.sourceforge.net/DTD/sodipodi-0.dtd"
   xmlns:inkscape="http://www.inkscape.org/namespaces/inkscape"
   width="210mm"
   height="297mm"
   viewBox="0 0 744.09448819 1052.3622047"
   id="svg2"
   version="1.1"
   inkscape:version="0.91 r13725"
   sodipodi:docname="logo.svg">
  <defs
     id="defs4" />
  <sodipodi:namedview
     id="base"
     pagecolor="#ffffff"
     bordercolor="#666666"
     borderopacity="1.0"
     inkscape:pageopacity="0.0"
     inkscape:pageshadow="2"
     inkscape:zoom="0.7"
     inkscape:cx="636.00235"
     inkscape:cy="642.13363"
     inkscape:document-units="px"
     inkscape:current-layer="layer1"
     showgrid="false"
     showguides="true"
     inkscape:window-width="1440"
     inkscape:window-height="802"
     inkscape:window-x="0"
     inkscape:window-y="0"
     inkscape:window-maximized="1" />
  <metadata
     id="metadata7">
    <rdf:RDF>
      <cc:Work
         rdf:about="">
        <dc:format>image/svg+xml</dc:format>
        <dc:type
           rdf:resource="http://purl.org/dc/dcmitype/StillImage" />
        <dc:title></dc:title>
      </cc:Work>
    </rdf:RDF>
  </metadata>
  <g
     inkscape:label="Layer 1"
     inkscape:groupmode="layer"
     id="layer1">
    <path
       style="fill:#00ff00;fill-opacity:1;stroke:none;stroke-width:3.79999995;stroke-miterlimit:4;stroke-dasharray:none;stroke-opacity:1"
       d="m 484.81055,271.81641 -5.28125,6.26367 5.31836,6.30859 208.64257,0 0,-12.57226 -208.67968,0 z"
       id="rect4146"
       inkscape:connector-curvature="0" />
    <path
       style="fill:#0000ff;fill-opacity:1;stroke:none;stroke-width:3.79999995;stroke-miterlimit:4;stroke-dasharray:none;stroke-opacity:1"
       d="m 493.0293,294.19336 8.32617,9.87695 0,2.69531 191.63086,0 0,-12.57226 -199.95703,0 z"
       id="rect4146-3"
       inkscape:connector-curvature="0" />
    <path
       style="fill:#ff0000;fill-opacity:1;stroke:none;stroke-width:3.79999995;stroke-miterlimit:4;stroke-dasharray:none;stroke-opacity:1"
       d="m 501.44922,249.43945 0,2.64063 -8.3711,9.92969 199.90821,0 0,-12.57032 -191.53711,0 z"
       id="rect4146-3-6"
       inkscape:connector-curvature="0" />
    <path
       inkscape:connector-curvature="0"
       id="path4179"
       style="font-style:normal;font-variant:normal;font-weight:bold;font-stretch:normal;font-size:80px;line-height:120.00000477%;font-family:Orbitron;-inkscape-font-specification:'Orbitron, Bold';text-align:start;letter-spacing:0px;word-spacing:0px;writing-mode:lr-tb;text-anchor:start;fill:#000000;fill-opacity:1;stroke:none;stroke-width:1px;stroke-linecap:butt;stroke-linejoin:miter;stroke-opacity:1"
       d="m 33.934424,249.26963 52.96,0 0,10.56 -42.32,0 0,12.96 34.08,0 0,10.56 -34.08,0 0,23.52 -10.64,0 0,-57.6 z" />
    <path
       inkscape:connector-curvature="0"
       id="path4181"
       style="font-style:normal;font-variant:normal;font-weight:bold;font-stretch:normal;font-size:80px;line-height:120.00000477%;font-family:Orbitron;-inkscape-font-specification:'Orbitron, Bold';text-align:start;letter-spacing:0px;word-spacing:0px;writing-mode:lr-tb;text-anchor:start;fill:#000000;fill-opacity:1;stroke:none;stroke-width:1px;stroke-linecap:butt;stroke-linejoin:miter;stroke-opacity:1"
       d="m 103.02317,249.26963 35.28,0 q 4.64,0 7.92,3.28 3.28,3.2 3.28,7.84 l 0,46.48 -10.64,0 0,-19.36 -36.4,0 0,19.36 -10.559996,0 0,-46.48 q 0,-4.64 3.2,-7.84 3.28,-3.28 7.919996,-3.28 z m -0.56,27.68 36.4,0 0,-16.56 q 0,-0.56 -0.56,-0.56 l -35.28,0 q -0.56,0 -0.56,0.56 l 0,16.56 z" />
    <path
       inkscape:connector-curvature="0"
       id="path4183"
       style="font-style:normal;font-variant:normal;font-weight:bold;font-stretch:normal;font-size:80px;line-height:120.00000477%;font-family:Orbitron;-inkscape-font-specification:'Orbitron, Bold';text-align:start;letter-spacing:0px;word-spacing:0px;writing-mode:lr-tb;text-anchor:start;fill:#000000;fill-opacity:1;stroke:none;stroke-width:1px;stroke-linecap:butt;stroke-linejoin:miter;stroke-opacity:1"
       d="m 215.97442,260.38963 0,4.4 -10.64,0 0,-4.4 q 0,-0.56 -0.48,-0.56 l -35.36,0 q -0.56,0 -0.56,0.56 l 0,11.84 q 0,0.56 0.56,0.56 l 35.36,0 q 4.56,0 7.84,3.28 3.28,3.2 3.28,7.84 l 0,11.84 q 0,4.64 -3.28,7.92 -3.28,3.2 -7.84,3.2 l -35.36,0 q -4.64,0 -7.92,-3.2 -3.2,-3.28 -3.2,-7.92 l 0,-4.4 10.56,0 0,4.4 q 0,0.56 0.56,0.56 l 35.36,0 q 0.48,0 0.48,-0.56 l 0,-11.84 q 0,-0.56 -0.48,-0.56 l -35.36,0 q -4.64,0 -7.92,-3.2 -3.2,-3.28 -3.2,-7.92 l 0,-11.84 q 0,-4.64 3.2,-7.84 3.28,-3.28 7.92,-3.28 l 35.36,0 q 4.56,0 7.84,3.28 3.28,3.2 3.28,7.84 z" />
    <path
       inkscape:connector-curvature="0"
       id="path4185"
       style="font-style:normal;font-variant:normal;font-weight:bold;font-stretch:normal;font-size:80px;line-height:120.00000477%;font-family:Orbitron;-inkscape-font-specification:'Orbitron, Bold';text-align:start;letter-spacing:0px;word-spacing:0px;writing-mode:lr-tb;text-anchor:start;fill:#000000;fill-opacity:1;stroke:none;stroke-width:1px;stroke-linecap:butt;stroke-linejoin:miter;stroke-opacity:1"
       d="m 221.67567,249.26963 57.6,0 0,10.56 -23.44,0 0,47.04 -10.64,0 0,-47.04 -23.52,0 0,-10.56 z" />
    <path
       inkscape:connector-curvature="0"
       id="path4187"
       style="font-style:normal;font-variant:normal;font-weight:bold;font-stretch:normal;font-size:80px;line-height:120.00000477%;font-family:Orbitron;-inkscape-font-specification:'Orbitron, Bold';text-align:start;letter-spacing:0px;word-spacing:0px;writing-mode:lr-tb;text-anchor:start;fill:#000000;fill-opacity:1;stroke:none;stroke-width:1px;stroke-linecap:butt;stroke-linejoin:miter;stroke-opacity:1"
       d="m 367.62442,260.38963 0,4.48 -10.64,0 0,-4.48 q 0,-0.56 -0.56,-0.56 l -35.28,0 q -0.56,0 -0.56,0.56 l 0,35.36 q 0,0.56 0.56,0.56 l 35.28,0 q 0.56,0 0.56,-0.56 l 0,-10.88 -13.04,0 0,-10.56 23.68,0 0,21.44 q 0,4.64 -3.28,7.92 -3.28,3.2 -7.92,3.2 l -35.28,0 q -4.64,0 -7.92,-3.2 -3.2,-3.28 -3.2,-7.92 l 0,-35.36 q 0,-4.64 3.2,-7.84 3.28,-3.28 7.92,-3.28 l 35.28,0 q 4.64,0 7.92,3.28 3.28,3.2 3.28,7.84 z" />
    <path
       inkscape:connector-curvature="0"
       id="path4189"
       style="font-style:normal;font-variant:normal;font-weight:bold;font-stretch:normal;font-size:80px;line-height:120.00000477%;font-family:Orbitron;-inkscape-font-specification:'Orbitron, Bold';text-align:start;letter-spacing:0px;word-spacing:0px;writing-mode:lr-tb;text-anchor:start;fill:#000000;fill-opacity:1;stroke:none;stroke-width:1px;stroke-linecap:butt;stroke-linejoin:miter;stroke-opacity:1"
       d="m 376.74692,249.26963 52.96,0 0,10.56 -42.32,0 0,12.96 34.08,0 0,10.56 -34.08,0 0,23.52 -10.64,0 0,-57.6 z" />
    <path
       inkscape:connector-curvature="0"
       id="path4191"
       style="font-style:normal;font-variant:normal;font-weight:bold;font-stretch:normal;font-size:80px;line-height:120.00000477%;font-family:Orbitron;-inkscape-font-specification:'Orbitron, Bold';text-align:start;letter-spacing:0px;word-spacing:0px;writing-mode:lr-tb;text-anchor:start;fill:#000000;fill-opacity:1;stroke:none;stroke-width:1px;stroke-linecap:butt;stroke-linejoin:miter;stroke-opacity:1"
       d="m 479.97613,249.28028 11.6,0 0,2.8 -21.92,26 21.92,26 0,2.8 -11.6,0 -17.2,-20.4 -17.2,20.4 -11.6,0 0,-2.8 21.84,-26 -21.84,-26 0,-2.8 11.6,0 17.2,20.4 17.2,-20.4 z" />
  </g>
</svg>
